<svg xmlns="http://www.w3.org/2000/svg" viewBox="0 0 1100 560" width="100%" height="100%" style="background-color: #f8f9fb; font-family: Arial, Helvetica, sans-serif;">
    <defs>
        <marker id="arrow" viewBox="0 0 10 10" refX="9" refY="5" markerWidth="6" markerHeight="6" orient="auto-start-reverse">
            <path d="M 0 0 L 10 5 L 0 10 z" fill="#000000" />
        </marker>
        <marker id="red-arrow" viewBox="0 0 10 10" refX="9" refY="5" markerWidth="6" markerHeight="6" orient="auto-start-reverse">
            <path d="M 0 0 L 10 5 L 0 10 z" fill="#d73027" />
        </marker>

        <path id="brace-buffer" d="M 0 0 Q 10 0 10 10 L 10 15 Q 10 20 20 20 Q 10 20 10 25 L 10 30 Q 10 40 0 40" fill="none" stroke="#000" stroke-width="1.5"/>
        <path id="brace-right" d="M 0 0 Q 10 0 10 10 L 10 20 Q 10 30 20 30 Q 10 30 10 40 L 10 50 Q 10 60 0 60" fill="none" stroke="#000" stroke-width="1.5"/>
        <path id="brace-right-long" d="M 0 0 Q 10 0 10 10 L 10 45 Q 10 55 20 55 Q 10 55 10 65 L 10 100 Q 10 110 0 110" fill="none" stroke="#000" stroke-width="1.5"/>
    </defs>

    <text x="550" y="50" font-size="28" font-weight="bold" text-anchor="middle" fill="#000000">STACK-BASED BUFFER OVERFLOW: BEFORE &amp; AFTER</text>

    <line x1="550" y1="80" x2="550" y2="520" stroke="#000000" stroke-width="2" stroke-dasharray="8,6" />

    <text x="275" y="90" font-size="18" font-weight="bold" text-anchor="middle">BEFORE BUFFER OVERFLOW</text>
    <text x="275" y="110" font-size="16" text-anchor="middle" fill="#333333">(Normal Operation)</text>

    <rect x="180" y="140" width="180" height="340" fill="#ffffff" stroke="#000000" stroke-width="2" />

    <rect x="180" y="260" width="180" height="40" fill="#9ecae1" stroke="#000000" stroke-width="1" />
    <rect x="180" y="300" width="180" height="50" fill="#cccccc" stroke="#000000" stroke-width="1" />
    <line x1="202.5" y1="260" x2="202.5" y2="300" stroke="#000000" stroke-width="1" />
    <line x1="225" y1="260" x2="225" y2="300" stroke="#000000" stroke-width="1" />
    <line x1="247.5" y1="260" x2="247.5" y2="300" stroke="#000000" stroke-width="1" />
    <line x1="270" y1="260" x2="270" y2="300" stroke="#000000" stroke-width="1" />
    <line x1="292.5" y1="260" x2="292.5" y2="300" stroke="#000000" stroke-width="1" />
    <line x1="315" y1="260" x2="315" y2="300" stroke="#000000" stroke-width="1" />
    <line x1="337.5" y1="260" x2="337.5" y2="300" stroke="#000000" stroke-width="1" />

    <text x="270" y="200" font-size="14" text-anchor="middle">Function Parameters</text>
    <text x="270" y="220" font-size="14" text-anchor="middle">&amp; Local Variables</text>

    <g font-family="monospace" font-size="16" text-anchor="middle" fill="#000000">
        <text x="191.25" y="286">H</text>
        <text x="213.75" y="286">E</text>
        <text x="236.25" y="286">L</text>
        <text x="258.75" y="286">L</text>
        <text x="281.25" y="286">O</text>
    </g>

    <text x="270" y="320" font-size="14" font-weight="bold" text-anchor="middle">Return Address</text>
    <text x="270" y="338" font-size="13" text-anchor="middle" fill="#333333">(Critical)</text>

    <text x="270" y="510" font-size="16" font-weight="bold" text-anchor="middle">STACK MEMORY</text>
    <text x="270" y="530" font-size="14" text-anchor="middle" fill="#333333">(Grows Downwards)</text>

    <text x="120" y="245" font-size="14" font-weight="bold" text-anchor="end">Input Data</text>
    <text x="120" y="263" font-size="14" text-anchor="end">(Short)</text>
    <text x="120" y="285" font-size="16" font-family="monospace" text-anchor="end" letter-spacing="2">HELLO</text>
    <line x1="125" y1="280" x2="170" y2="280" stroke="#000000" stroke-width="2" marker-end="url(#arrow)" />

    <use href="#brace-buffer" x="365" y="260" />
    <text x="395" y="276" font-size="14" font-weight="bold">Buffer</text>
    <text x="395" y="292" font-size="13" fill="#333">(e.g., char[8])</text>

    <line x1="360" y1="325" x2="400" y2="325" stroke="#000000" stroke-width="2" marker-end="url(#arrow)" />
    <text x="410" y="320" font-size="14" font-weight="bold">Code to Execute</text>
    <text x="410" y="340" font-size="13" fill="#333">(Normal Program</text>
    <text x="410" y="360" font-size="13" fill="#333">Flow)</text>


    <text x="825" y="90" font-size="18" font-weight="bold" text-anchor="middle">AFTER BUFFER OVERFLOW</text>
    <text x="825" y="110" font-size="16" text-anchor="middle" fill="#333333">(Exploited State)</text>

    <rect x="720" y="140" width="180" height="340" fill="#ffffff" stroke="#000000" stroke-width="2" />

    <rect x="720" y="260" width="180" height="40" fill="#fc9272" stroke="#000000" stroke-width="1" />
    <rect x="720" y="300" width="180" height="50" fill="#fc9272" stroke="#000000" stroke-width="1" />
    <rect x="720" y="350" width="180" height="130" fill="#fc9272" stroke="#000000" stroke-width="1" />
    <line x1="742.5" y1="260" x2="742.5" y2="300" stroke="#000000" stroke-width="1" />
    <line x1="765" y1="260" x2="765" y2="300" stroke="#000000" stroke-width="1" />
    <line x1="787.5" y1="260" x2="787.5" y2="300" stroke="#000000" stroke-width="1" />
    <line x1="810" y1="260" x2="810" y2="300" stroke="#000000" stroke-width="1" />
    <line x1="832.5" y1="260" x2="832.5" y2="300" stroke="#000000" stroke-width="1" />
    <line x1="855" y1="260" x2="855" y2="300" stroke="#000000" stroke-width="1" />
    <line x1="877.5" y1="260" x2="877.5" y2="300" stroke="#000000" stroke-width="1" />

    <line x1="720" y1="390" x2="900" y2="390" stroke="#000000" stroke-width="1" />
    <line x1="720" y1="430" x2="900" y2="430" stroke="#000000" stroke-width="1" />

    <text x="810" y="200" font-size="14" text-anchor="middle">Function Parameters</text>
    <text x="810" y="220" font-size="14" text-anchor="middle">&amp; Local Variables</text>

    <g font-family="monospace" font-size="16" text-anchor="middle" fill="#000000">
        <text x="731.25" y="286">H</text>
        <text x="753.75" y="286">E</text>
        <text x="776.25" y="286">L</text>
        <text x="798.75" y="286">L</text>
        <text x="821.25" y="286">O</text>
        <text x="843.75" y="286">W</text>
        <text x="866.25" y="286">O</text>
        <text x="888.75" y="286">R</text>
    </g>

    <text x="810" y="332" font-size="16" font-family="monospace" text-anchor="middle">L D ! O V E R F</text>
    <text x="810" y="376" font-size="16" font-family="monospace" text-anchor="middle">X 9 0 C C 9 0 E</text>
    <text x="810" y="416" font-size="16" font-family="monospace" text-anchor="middle">H 3 4 B C 6 9 F</text>
    <text x="810" y="460" font-size="16" font-family="monospace" text-anchor="middle">X Q Y P 8 9 3 H</text>

    <text x="810" y="510" font-size="16" font-weight="bold" text-anchor="middle">STACK MEMORY</text>
    <text x="810" y="530" font-size="14" text-anchor="middle" fill="#333333">(Grows Downwards)</text>

    <text x="650" y="245" font-size="14" font-weight="bold" text-anchor="end">Input Data</text>
    <text x="650" y="263" font-size="14" text-anchor="end">(Too Long)</text>
    <text x="650" y="285" font-size="14" font-weight="bold" text-anchor="end">HELLOWORLD!</text>
    <text x="650" y="303" font-size="14" font-weight="bold" text-anchor="end">OVERFLOW...</text>
    <line x1="660" y1="280" x2="710" y2="280" stroke="#000000" stroke-width="2" marker-end="url(#arrow)" />

    <use href="#brace-buffer" x="905" y="260" />
    <text x="935" y="276" font-size="14" font-weight="bold">Buffer</text>
    <text x="935" y="292" font-size="13" fill="#333">(e.g., char[8])</text>

    <use href="#brace-right" x="905" y="300" />
    <text x="935" y="320" font-size="14" font-weight="bold">Return Address</text>
    <text x="935" y="340" font-size="13" fill="#333">(Critical)</text>

    <use href="#brace-right-long" x="905" y="360" />
    <text x="935" y="405" font-size="14" font-weight="bold">Overflow Data</text>
    <text x="935" y="425" font-size="13" fill="#333">(Malicious payload,</text>
    <text x="935" y="445" font-size="13" fill="#333">e.g., Shellcode)</text>

    <path d="M 720 325 L 685 325 L 685 440 L 710 440" fill="none" stroke="#d73027" stroke-width="2" marker-end="url(#red-arrow)" />
    <text x="670" y="375" font-size="14" font-weight="bold" text-anchor="end">Hijacked Pointer</text>
    <text x="670" y="395" font-size="14" text-anchor="end">to Malicious</text>
    <text x="670" y="415" font-size="14" text-anchor="end">Shellcode</text>
</svg>
